<svg width="700" height="560" viewBox="0 0 700 560" fill="none" xmlns="http://www.w3.org/2000/svg">
<g clip-path="url(#clip0)">
<path d="M629.491 91.2L434.391 90C427.991 90 422.891 95.3 423.191 101.7L436.591 378.9H653.691L665.791 131.2L629.491 91.2Z" fill="white"/>
<path d="M637.591 130.1C631.191 129.9 626.391 124.4 626.891 118.1L628.991 91.6001L665.791 131.1L637.591 130.1Z" fill="#BFBFBF"/>
<g opacity="0.78">
<path opacity="0.78" d="M526.091 144.1C543.591 144.1 610.791 143.9 627.791 143.8C629.891 143.8 631.591 145.8 631.591 148.3C631.491 150.7 629.791 152.5 627.791 152.6L526.091 153.5C524.091 153.5 522.491 151.8 522.291 149.6V149C522.091 146.3 523.791 144.1 526.091 144.1Z" fill="#0284C7"/>
</g>
<g opacity="0.78">
<path opacity="0.78" d="M525.291 163.5C542.791 163.5 609.991 163.3 626.991 163.2C629.091 163.2 630.791 165.2 630.791 167.7C630.691 170.1 628.991 171.9 626.991 172L525.291 172.9C523.291 172.9 521.691 171.2 521.491 169V168.4C521.291 165.8 522.991 163.6 525.291 163.5Z" fill="#0284C7"/>
</g>
<g opacity="0.78">
<path opacity="0.78" d="M464.491 191.3C491.491 191.3 595.391 191.3 621.591 191.3C624.891 191.3 627.591 193.3 627.491 195.8C627.391 198.2 624.891 200 621.791 200L464.791 200.6C461.791 200.6 459.191 198.9 458.891 196.6L458.791 196C458.391 193.5 461.091 191.3 464.491 191.3Z" fill="#0284C7"/>
</g>
<g opacity="0.78">
<path opacity="0.78" d="M463.291 211.7C484.391 211.6 565.191 211.1 585.591 211C588.191 211 590.291 213 590.191 215.5C590.091 217.9 588.191 219.7 585.691 219.8L463.391 221C460.991 221 459.091 219.3 458.791 217.1L458.691 216.5C458.491 213.9 460.591 211.7 463.291 211.7Z" fill="#0284C7"/>
</g>
<g opacity="0.78">
<path opacity="0.78" d="M464.291 238.4C491.291 238.4 595.191 238.4 621.391 238.4C624.691 238.4 627.391 240.4 627.291 242.9C627.191 245.3 624.691 247.1 621.591 247.1L464.591 247.7C461.591 247.7 458.991 246 458.691 243.7L458.591 243.1C458.191 240.6 460.791 238.4 464.291 238.4Z" fill="#0284C7"/>
</g>
<g opacity="0.78">
<path opacity="0.78" d="M461.891 259.1C483.091 259.1 564.291 259.2 584.791 259.2C587.391 259.2 589.491 261.3 589.391 263.7C589.291 266.1 587.291 267.9 584.891 267.9L461.991 268.5C459.591 268.5 457.591 266.8 457.391 264.5L457.291 263.9C457.091 261.3 459.191 259.1 461.891 259.1Z" fill="#0284C7"/>
</g>
<g opacity="0.78">
<path opacity="0.78" d="M462.891 286.5C489.891 286.5 593.791 286.5 619.991 286.5C623.291 286.5 625.991 288.5 625.891 291C625.791 293.4 623.291 295.2 620.191 295.2L463.191 295.8C460.191 295.8 457.591 294.1 457.291 291.8L457.191 291.2C456.791 288.7 459.491 286.5 462.891 286.5Z" fill="#0284C7"/>
</g>
<g opacity="0.78">
<path opacity="0.78" d="M461.291 307C482.491 307 563.691 307.1 584.191 307.1C586.791 307.1 588.891 309.2 588.791 311.6C588.691 314 586.691 315.8 584.291 315.8L461.491 316.3C459.091 316.3 457.091 314.6 456.891 312.3L456.791 311.7C456.491 309.2 458.591 307 461.291 307Z" fill="#0284C7"/>
</g>
<g opacity="0.78">
<path opacity="0.78" d="M464.491 334C491.491 334 595.391 334 621.591 334C624.891 334 627.591 336 627.491 338.5C627.391 340.9 624.891 342.7 621.791 342.7L464.791 343.3C461.791 343.3 459.191 341.6 458.891 339.3L458.791 338.7C458.391 336.2 461.091 334 464.491 334Z" fill="#0284C7"/>
</g>
<g opacity="0.78">
<path opacity="0.78" d="M462.991 356.7C483.891 356.7 564.091 356.6 584.291 356.6C586.891 356.6 588.891 358.6 588.791 361.1C588.691 363.5 586.691 365.3 584.291 365.3L463.091 366C460.791 366 458.791 364.3 458.591 362L458.491 361.4C458.291 358.9 460.291 356.7 462.991 356.7Z" fill="#0284C7"/>
</g>
<path d="M323.791 305.9L364.691 359.8L362.491 362.7C362.491 362.7 331.491 319.8 323.791 305.9Z" fill="#4E9DC4"/>
<path d="M255.791 535.8H303.791V314H289.191L257.691 286.6L255.791 535.8Z" fill="#FFCB57"/>
<path d="M341.991 534H293.991V312.2H308.591L340.091 284.8L341.991 534Z" fill="#EAA824"/>
<path d="M252.391 554.2H107.391C107.391 554.2 90.9908 531.6 90.9908 512.5C90.9908 493.4 140.591 363.5 157.491 348.9C174.391 334.4 252.291 304.8 252.291 304.8V554.2H252.391Z" fill="white"/>
<path d="M338.891 554.2H496.891C496.891 554.2 513.291 531.6 513.291 512.5C513.291 493.4 463.691 363.5 446.791 348.9C429.891 334.4 351.991 304.8 351.991 304.8L339.291 327.5L338.891 554.2Z" fill="white"/>
<g opacity="0.5">
<g opacity="0.5">
<g opacity="0.5">
<path opacity="0.5" d="M351.191 545.4H341.191V280.6C341.191 280.6 344.491 286.6 356.391 298.7C371.391 313.9 384.191 336.8 384.191 336.8L357.191 331.6L392.291 366.9L351.191 545.4Z" fill="#8FA7D7"/>
</g>
</g>
</g>
<g opacity="0.5">
<g opacity="0.5">
<path opacity="0.5" d="M240.491 298.5C225.491 313.7 212.691 336.6 212.691 336.6L239.691 331.4L204.591 366.7L234.391 496.2L206.791 488.3L191.991 424.3C191.991 424.3 197.591 480.3 195.891 493.3L199.791 495C199.891 496.1 199.991 497.3 200.091 498.4C200.191 499.4 199.791 500.3 199.291 500.9C211.091 508.4 224.691 512.9 238.791 515.3L245.691 545.1H255.691V280.4C255.791 280.4 252.491 286.4 240.491 298.5Z" fill="#8FA7D7"/>
</g>
</g>
<path d="M280.991 342.2L298.291 312.2L255.291 285.6L280.991 342.2Z" fill="#BF7A00"/>
<path d="M316.791 342.2L298.291 312.2L341.991 283L316.791 342.2Z" fill="#BF7A00"/>
<path d="M314.891 333.8L298.291 312.2L335.291 288.8L314.891 333.8Z" fill="#FFEE99"/>
<path d="M281.691 333.8L298.291 312.2L261.291 288.8L281.691 333.8Z" fill="#FFEE99"/>
<path d="M345.291 542.4H335.291V277.6C335.291 277.6 341.391 280.2 353.291 292.3C368.291 307.5 378.291 333.8 378.291 333.8L351.291 328.6L386.391 363.9L345.291 542.4Z" fill="white"/>
<path d="M251.291 542.4H261.291V277.6C261.291 277.6 255.191 280.2 243.291 292.3C228.291 307.5 218.291 333.8 218.291 333.8L245.291 328.6L210.191 363.9L251.291 542.4Z" fill="white"/>
<g opacity="0.5">
<g opacity="0.5">
<g opacity="0.5">
<path opacity="0.5" d="M432.091 502.1L488.191 434L432.391 492.7C433.591 459.6 435.491 424.3 435.491 424.3L419.191 554.7L432.191 548C431.191 543.1 431.391 523.9 432.091 502.1Z" fill="#8FA7D7"/>
</g>
</g>
</g>
<path d="M301.391 542.4H152.591V477.9L296.991 519.5C299.591 520.3 301.391 522.6 301.391 525.4V542.4Z" fill="white"/>
<path d="M416.691 488.6L399.291 498.9C398.891 499.1 398.391 499.1 397.991 498.9L379.591 488.6C379.191 488.4 378.891 487.9 378.891 487.5V449C378.891 448.3 379.491 447.7 380.191 447.7H415.991C416.691 447.7 417.291 448.3 417.291 449V487.6C417.291 487.9 417.091 488.4 416.691 488.6Z" fill="#D5E1ED"/>
<path d="M416.691 488.6L399.291 498.9C398.891 499.1 398.391 499.1 397.991 498.9L379.591 488.6C379.191 488.4 378.891 487.9 378.891 487.5V456.7C378.891 456 379.491 455.4 380.191 455.4H415.991C416.691 455.4 417.291 456 417.291 456.7V487.5C417.291 487.9 417.091 488.4 416.691 488.6Z" fill="#B8DDFF"/>
<path d="M514.991 558.2L433.791 500L503.091 415C504.591 413.2 507.191 412.3 509.291 413.7C511.391 415.1 512.091 417.9 525.491 425.2C538.891 432.5 544.991 431.7 547.191 432.8C549.391 433.9 550.491 436.4 549.791 438.8L514.991 558.2Z" fill="white"/>
<path d="M301.191 327.5C301.191 328.4 300.391 329.2 299.491 329.2C298.591 329.2 297.791 328.4 297.791 327.5C297.791 326.6 298.591 325.8 299.491 325.8C300.391 325.8 301.191 326.6 301.191 327.5Z" fill="white"/>
<path d="M301.191 380.2C301.191 381.1 300.391 381.9 299.491 381.9C298.591 381.9 297.791 381.1 297.791 380.2C297.791 379.3 298.591 378.5 299.491 378.5C300.391 378.5 301.191 379.2 301.191 380.2Z" fill="white"/>
<path d="M299.491 440.4C300.43 440.4 301.191 439.639 301.191 438.7C301.191 437.761 300.43 437 299.491 437C298.552 437 297.791 437.761 297.791 438.7C297.791 439.639 298.552 440.4 299.491 440.4Z" fill="white"/>
<path d="M301.191 491.3C301.191 492.2 300.391 493 299.491 493C298.591 493 297.791 492.2 297.791 491.3C297.791 490.4 298.591 489.6 299.491 489.6C300.391 489.6 301.191 490.4 301.191 491.3Z" fill="white"/>
<path d="M357.991 229C354.091 243 347.191 253.8 344.191 252.9C344.191 252.9 346.291 244 349.091 229.7C352.391 213.1 352.791 201.4 359.591 202.1C362.691 202.4 361.891 215 357.991 229Z" fill="#F0BA92"/>
<g opacity="0.6">
<g opacity="0.6">
<g opacity="0.6">
<path opacity="0.6" d="M352.791 223.2C349.291 237.3 347.191 253.8 344.291 253C344.291 253 347.291 240.3 350.091 226C353.391 209.4 352.991 203.7 359.791 204.3C359.691 204.2 357.091 206 352.791 223.2Z" fill="#D88D64"/>
</g>
</g>
</g>
<path d="M238.991 229C242.891 243 249.391 253.9 252.291 253C252.291 253 249.091 241.4 247.191 229.3C244.591 212.6 244.091 201.5 237.291 202.1C234.291 202.4 235.091 215 238.991 229Z" fill="#F0BA92"/>
<g opacity="0.6">
<g opacity="0.6">
<g opacity="0.6">
<path opacity="0.6" d="M242.191 221.7C245.691 235.8 249.391 253.9 252.391 253.1C252.391 253.1 249.191 238.6 246.391 224.3C243.091 207.7 243.691 203.8 236.891 204.4C236.891 204.3 237.891 204.5 242.191 221.7Z" fill="#D88D64"/>
</g>
</g>
</g>
<path d="M335.291 288.8L298.291 312.2L261.291 288.8V270.2H335.291V288.8Z" fill="#F0BA92"/>
<g opacity="0.6">
<g opacity="0.6">
<g opacity="0.6">
<path opacity="0.6" d="M335.291 278.8C328.591 292.8 302.491 301.4 298.291 301.4C294.091 301.4 271.891 295.1 261.291 278.8V259.4H335.291V278.8Z" fill="#D88D64"/>
</g>
</g>
</g>
<path d="M414.291 542.4H301.391V530.6L353.891 525.7C356.091 525.5 358.291 525.6 360.491 526L414.891 536.4C416.291 536.7 417.291 537.9 417.291 539.4C417.291 541 415.991 542.4 414.291 542.4Z" fill="#FFCCA9"/>
<path d="M563.291 363.4C562.091 362.5 560.691 362.2 559.391 362.4L559.591 362.2C561.391 359.9 560.891 356.6 558.591 354.8C556.691 353.3 553.991 353.4 552.191 354.8L554.791 351.4C556.591 349.1 556.091 345.8 553.791 344C551.691 342.4 548.891 342.6 546.991 344.3L561.091 320C562.591 317.4 561.691 314.2 559.091 312.7C556.591 311.3 553.391 312.1 551.891 314.5L538.791 335.4C534.191 342.8 525.991 351.9 519.791 360.1C517.791 362.8 516.591 365.6 515.891 368.5C515.891 368.6 515.791 368.8 515.791 368.9C515.691 369.4 515.591 369.9 515.491 370.3C515.491 370.4 515.491 370.5 515.491 370.5C514.691 375.8 515.491 381.5 515.991 387.3C516.791 397 510.091 414.5 510.091 414.5C522.191 429 542.291 431.7 542.291 431.7C542.291 431.7 544.291 424.8 546.191 418.9C548.091 413 556.891 399.1 560.791 386.1C563.691 376.1 564.991 369.5 564.991 369.5C564.991 369.5 564.991 369.5 564.891 369.6C565.791 367.4 565.291 364.9 563.291 363.4Z" fill="#FFCCA9"/>
<path d="M564.391 364.6C565.191 366.6 565.291 368.3 563.691 370.4L554.491 382.4C553.691 383.4 552.691 384 551.391 384.2C550.191 384.3 548.991 384 547.991 383.3C546.991 382.5 546.391 381.5 546.191 380.2C546.091 379.7 546.191 379.3 546.291 378.8C545.891 379.1 545.391 379.4 544.891 379.7C544.891 379.9 544.891 380.1 544.891 380.3C545.091 381.9 545.891 383.3 547.191 384.2C548.191 385 549.491 385.4 550.791 385.4C551.091 385.4 551.291 385.4 551.591 385.3C553.191 385.1 554.591 384.3 555.491 383L564.691 371C567.091 367.6 564.491 364.7 564.391 364.6Z" fill="#D88D64"/>
<path d="M559.091 361.8L546.491 378C544.891 380 541.991 380.4 539.991 378.8C537.991 377.2 537.591 374.3 539.191 372.3L542.391 368.1C542.391 368 542.291 367.9 542.291 367.8C541.791 368.4 541.091 369 540.391 369.4C540.091 369.6 539.791 369.7 539.491 369.8L538.191 371.5C537.191 372.8 536.791 374.3 536.991 375.9C537.191 377.5 537.991 378.9 539.291 379.8C540.391 380.6 541.591 381 542.891 381C544.691 381 546.391 380.2 547.591 378.7L560.091 362.4C560.691 361.6 561.191 359.3 560.591 357.7C560.491 358.7 560.491 359.9 559.091 361.8Z" fill="#D88D64"/>
<path d="M555.791 348.9C553.391 352.6 541.691 367.3 541.691 367.3C540.891 368.3 539.891 368.9 538.591 369.1C537.391 369.2 536.191 368.9 535.191 368.2C533.191 366.6 532.791 363.7 534.391 361.7L536.391 359.1C535.491 359.5 534.591 360 533.691 360.4L533.291 360.9C531.291 363.5 531.791 367.2 534.391 369.2C535.391 370 536.691 370.4 537.991 370.4C538.291 370.4 538.491 370.4 538.791 370.3C540.391 370.1 541.791 369.3 542.691 368C542.691 368 554.391 353 554.891 352.2C555.491 351.5 555.891 349.2 555.791 348.9Z" fill="#D88D64"/>
<path d="M547.291 345.5C545.991 344.2 544.191 343.6 542.391 343.8L537.991 344.2C535.491 344.4 533.291 345.4 531.391 346.9C531.891 347 536.191 345.6 538.091 345.4L542.491 345C543.891 344.9 545.391 345.4 546.391 346.4C547.491 347.4 547.991 348.8 547.991 350.3C547.891 353.1 546.791 353.8 540.991 356.3C536.391 358.3 517.091 369.9 516.891 370.5C520.991 368.2 536.591 359.6 541.491 357.5C547.191 355.1 549.091 354.1 549.291 350.3C549.391 348.6 548.591 346.8 547.291 345.5Z" fill="#D88D64"/>
<path d="M344.291 252.9C331.991 293.4 298.291 294.1 298.291 294.1C298.291 294.1 262.691 294 252.091 251.9C245.091 224.1 228.191 181.6 248.391 150.1C259.791 132.3 343.091 125.1 352.891 150.1C362.691 175.2 351.491 229.2 344.291 252.9Z" fill="#FFCCA9"/>
<path d="M316.391 251.4C317.791 252.5 313.591 267.2 298.291 267.3C285.391 267.4 278.891 254.2 280.091 252.2C281.491 249.7 286.691 251.4 297.791 251.4C308.891 251.5 314.891 250.2 316.391 251.4Z" fill="white"/>
<path d="M298.091 268.1C289.891 268.1 283.791 262.7 280.891 257.6C279.691 255.6 278.691 253 279.391 251.8C280.591 249.8 283.291 250 288.391 250.3C290.891 250.5 293.991 250.7 297.791 250.7C302.291 250.7 305.991 250.5 308.891 250.3C313.491 250 315.791 249.9 316.891 250.8C317.891 251.7 317.091 254.3 316.691 255.4C315.991 257.5 311.591 267.9 298.291 268.1C298.191 268.1 298.191 268.1 298.091 268.1ZM284.091 251.7C282.291 251.7 281.091 251.9 280.691 252.7C280.491 253 280.891 255 282.591 257.8C283.991 259.9 288.991 266.7 297.991 266.7C298.091 266.7 298.091 266.7 298.191 266.7C306.991 266.6 311.591 261.5 313.491 258.5C315.391 255.5 315.891 252.7 315.691 252.1C314.991 251.6 312.191 251.8 308.791 252C305.891 252.2 302.191 252.4 297.591 252.4C293.791 252.4 290.591 252.2 288.091 252C286.591 251.8 285.291 251.7 284.091 251.7Z" fill="#D3976E"/>
<path d="M298.291 239.1C296.491 237.8 293.691 234.9 295.391 230.2C296.791 226.1 296.991 218.2 296.991 218.2H298.491C298.491 218.5 298.291 226.4 296.791 230.7C295.591 234.4 297.391 236.6 299.191 237.9L298.291 239.1Z" fill="#D88D64"/>
<path d="M264.591 441C263.791 398.3 257.391 366 236.991 366C216.291 366 210.091 399.4 209.391 443.1L209.291 445.4C209.291 453.9 213.791 456 219.591 456.9C221.691 457.2 223.891 457.4 225.891 457.4C226.391 458.6 227.591 459.5 228.991 459.5C230.891 459.5 232.491 458 232.491 456V453.2C232.491 451.3 230.991 449.7 228.991 449.7C227.291 449.7 225.891 451 225.591 452.7C220.991 452.5 215.391 451.5 213.491 448.1C211.691 444.8 212.791 437.8 212.891 433C214.091 396.7 219.991 369.5 236.791 369.5C253.591 369.5 259.491 396.7 260.691 432.9C260.891 437.4 261.591 444.1 259.891 447.5C258.391 450.6 254.191 451.9 250.091 452.5C249.691 450.9 248.091 449.8 246.391 450C244.491 450.2 243.191 452 243.391 453.8L243.691 456.6C243.891 458.5 245.691 459.8 247.491 459.6C248.891 459.4 250.091 458.4 250.391 457.1C256.991 456.2 264.491 453.3 264.191 444.6V441.2C264.591 441.1 264.591 441 264.591 441Z" fill="#383F47"/>
<path d="M237.391 367.7H234.091V330.8L237.391 330.1V367.7Z" fill="#383F47"/>
<path d="M391.691 393.2C389.991 345.2 374.591 320.7 364.791 307.1C355.491 294.2 353.291 292.5 353.291 292.5C354.891 293.2 392.591 311.6 395.491 393.1L391.691 393.2Z" fill="#383F47"/>
<path d="M393.891 394.1C391.291 344.2 379.391 322.4 369.591 308.8C360.291 295.9 353.391 292.4 353.391 292.4C354.991 293.1 392.691 313.1 395.691 394.5L393.891 394.1Z" fill="#1A2026"/>
<path d="M405.53 419.496C411.974 413.053 411.974 402.606 405.53 396.162C399.086 389.719 388.639 389.719 382.196 396.162C375.752 402.606 375.752 413.053 382.196 419.496C388.639 425.94 399.086 425.94 405.53 419.496Z" fill="#BCBCBC"/>
<path d="M393.891 424.8C384.491 424.8 376.891 417.2 376.891 407.8C376.891 398.4 384.491 390.8 393.891 390.8C403.291 390.8 410.891 398.4 410.891 407.8C410.891 417.2 403.291 424.8 393.891 424.8ZM393.891 391.8C385.091 391.8 377.891 399 377.891 407.8C377.891 416.6 385.091 423.8 393.891 423.8C402.691 423.8 409.891 416.6 409.891 407.8C409.891 399 402.791 391.8 393.891 391.8Z" fill="#444444"/>
<g opacity="0.3">
<g opacity="0.3">
<g opacity="0.3">
<path opacity="0.3" d="M402.091 422.8L397.891 414L400.791 405.9L409.891 402C409.991 402 415.291 413.7 402.091 422.8Z" fill="white"/>
</g>
</g>
</g>
<path d="M393.891 416.8C397.978 416.8 401.291 413.308 401.291 409C401.291 404.692 397.978 401.2 393.891 401.2C389.804 401.2 386.491 404.692 386.491 409C386.491 413.308 389.804 416.8 393.891 416.8Z" fill="#635B53"/>
<g opacity="0.4">
<g opacity="0.4">
<g opacity="0.4">
<path opacity="0.4" d="M391.291 390.8L392.191 400.8L386.591 407.4L376.691 407.9C376.791 407.8 375.791 394.7 391.291 390.8Z" fill="white"/>
</g>
</g>
</g>
<path d="M400.491 407.8C400.491 411.4 397.491 414.4 393.891 414.4C390.291 414.4 387.291 411.4 387.291 407.8C387.291 404.2 390.291 401.2 393.891 401.2C397.491 401.2 400.491 404.2 400.491 407.8Z" fill="#D3D3D3"/>
<path d="M393.891 414.9C389.991 414.9 386.791 411.7 386.791 407.8C386.791 403.9 389.991 400.7 393.891 400.7C397.791 400.7 400.991 403.9 400.991 407.8C400.991 411.7 397.791 414.9 393.891 414.9ZM393.891 401.7C390.491 401.7 387.791 404.4 387.791 407.8C387.791 411.2 390.491 413.9 393.891 413.9C397.291 413.9 399.991 411.2 399.991 407.8C399.991 404.5 397.291 401.7 393.891 401.7Z" fill="#A8A6A0"/>
<path d="M393.891 411.2C395.327 411.2 396.491 410.036 396.491 408.6C396.491 407.164 395.327 406 393.891 406C392.455 406 391.291 407.164 391.291 408.6C391.291 410.036 392.455 411.2 393.891 411.2Z" fill="#BABABA"/>
<path d="M393.891 410.4C395.327 410.4 396.491 409.236 396.491 407.8C396.491 406.364 395.327 405.2 393.891 405.2C392.455 405.2 391.291 406.364 391.291 407.8C391.291 409.236 392.455 410.4 393.891 410.4Z" fill="white"/>
<path d="M229.191 457.8H227.691C227.291 457.8 226.991 457.5 226.991 457.1V451.8C226.991 451.4 227.291 451.1 227.691 451.1H229.191C229.591 451.1 229.891 451.4 229.891 451.8V457.1C229.891 457.5 229.591 457.8 229.191 457.8Z" fill="#AAA9A2"/>
<path d="M248.491 457.7L246.991 457.8C246.591 457.8 246.291 457.6 246.291 457.2L245.791 451.9C245.791 451.5 245.991 451.2 246.391 451.2L247.891 451.1C248.291 451.1 248.591 451.3 248.591 451.7L249.091 457C249.191 457.4 248.891 457.7 248.491 457.7Z" fill="#AAA9A2"/>
<g opacity="0.4">
<g opacity="0.4">
<g opacity="0.4">
<path opacity="0.4" d="M392.191 402.2C388.391 403.5 388.091 407 388.091 407L391.791 407.3L392.791 406.3L392.191 402.2Z" fill="white"/>
</g>
</g>
</g>
<g opacity="0.4">
<g opacity="0.4">
<g opacity="0.4">
<path opacity="0.4" d="M397.491 412.7C400.591 410.2 399.691 406.8 399.691 406.8L396.091 407.8L395.491 409.1L397.491 412.7Z" fill="white"/>
</g>
</g>
</g>
<path d="M244.591 224.8C244.591 224.8 237.491 196.6 236.191 182.4C234.891 168.2 233.391 149 249.491 142.5C265.491 136 260.591 155.9 260.591 155.9C260.591 155.9 247.891 164.4 245.391 185.8C243.991 197.3 244.591 224.8 244.591 224.8Z" fill="#2A445D"/>
<path d="M351.291 224.4C351.291 224.4 359.191 196.6 360.491 182.4C361.791 168.2 363.291 149 347.191 142.5C331.091 136 335.991 155.8 335.991 155.8C335.991 155.8 348.691 164.3 351.191 185.7C352.691 197.3 351.291 224.4 351.291 224.4Z" fill="#2A445D"/>
<path d="M338.191 162.7C338.191 162.7 318.691 165.8 305.591 159.7C301.791 157.9 283.091 165.8 274.591 164.2C258.191 161.1 250.991 147.8 250.691 146.4C249.791 142.4 245.791 136.7 257.691 127.8C274.091 115.5 294.291 118.5 297.691 114.9C301.091 111.3 304.491 109.1 310.991 109.8C328.591 111.6 329.391 121.9 339.291 123.4C352.091 125.4 356.491 130.6 357.291 141.4C358.791 161.8 338.191 162.7 338.191 162.7Z" fill="#2A445D"/>
<path d="M300.991 112.1C300.991 112.1 295.491 116 281.691 132.1C267.891 148.2 260.691 147.2 259.091 147.5C259.091 147.5 270.991 149.6 283.591 133C296.191 116.4 300.991 112.1 300.991 112.1Z" fill="#1F384C"/>
<path d="M322.591 162.2C322.591 162.2 345.591 164.9 355.691 152.9C355.691 152.9 353.591 165.5 323.091 162.4L322.591 162.2Z" fill="#1F384C"/>
<path d="M284.691 162.5C257.491 166.3 249.691 143.9 249.891 144.3C254.191 157.9 264.991 163.1 272.891 165.2C275.291 165.9 277.591 166.3 279.991 166.4C281.291 166.5 282.091 166.5 282.091 166.5C308.091 166.7 329.091 139.3 329.091 139.3C311.491 154.4 295.791 160.3 284.691 162.5Z" fill="#1F384C"/>
<path d="M331.091 196.5C327.791 194.2 323.991 193.2 319.891 193.8C318.191 194.1 316.791 192.5 317.191 190.8C317.391 190 317.991 189.3 318.791 189C324.391 187.3 329.991 188.2 334.291 192.6C334.891 193.2 335.091 194.1 334.891 194.9V195.1C334.491 196.7 332.491 197.5 331.091 196.5Z" fill="#2A445D"/>
<path d="M319.291 209.5C317.691 209.5 316.391 211.2 316.391 213.2C316.391 215.2 317.691 216.9 319.291 216.9C320.891 216.9 322.191 215.2 322.191 213.2C322.191 211.1 320.891 209.5 319.291 209.5Z" fill="#210601"/>
<path d="M278.291 209.2C276.691 209.2 275.391 210.9 275.391 212.9C275.391 214.9 276.691 216.6 278.291 216.6C279.891 216.6 281.191 214.9 281.191 212.9C281.191 210.8 279.891 209.2 278.291 209.2Z" fill="#210601"/>
<path d="M330.891 209.4C329.291 204.5 324.691 200.9 319.291 200.9C313.191 200.9 308.091 205.4 307.191 211.3C305.091 208.9 301.991 207.3 298.491 207.3C295.291 207.3 292.491 208.6 290.391 210.6C289.291 204.9 284.291 200.6 278.291 200.6C272.791 200.6 268.291 204.2 266.691 209.1C246.291 201.9 241.291 200.9 239.891 201.2C239.491 201.3 239.191 201.9 239.091 202.2L240.191 202.6L240.391 202.3C242.191 202.1 254.891 206.2 266.391 210.3C266.191 211.1 266.091 212 266.091 212.8C266.091 219.6 271.591 225.1 278.391 225.1C282.891 225.1 286.891 222.6 288.991 218.9C289.391 218.9 289.691 218.7 289.991 218.5C290.391 218.3 290.691 218.1 290.991 217.8C291.491 217.2 291.891 216.5 291.991 215.7C292.291 213.8 291.791 212.4 291.291 211.6C293.191 209.7 295.791 208.5 298.591 208.5C301.691 208.5 304.491 209.9 306.391 212.1C305.891 212.9 305.591 214.2 305.791 216C305.891 216.8 306.191 217.5 306.791 218.1C307.091 218.4 307.391 218.6 307.791 218.8C308.091 219 308.491 219.1 308.791 219.2C310.891 222.9 314.891 225.4 319.391 225.4C326.191 225.4 331.691 219.9 331.691 213.1C331.691 212.2 331.591 211.4 331.391 210.6C343.091 206.5 355.691 202.3 357.191 202.6L358.491 202.1C357.991 201.3 357.391 200 330.891 209.4ZM278.291 223.9C272.191 223.9 267.291 219 267.291 212.9C267.291 206.8 272.191 201.9 278.291 201.9C284.391 201.9 289.291 206.8 289.291 212.9C289.291 218.9 284.291 223.9 278.291 223.9ZM290.491 216.4C290.391 216.7 290.191 216.9 289.991 217.1C289.891 217.2 289.791 217.2 289.691 217.3C290.191 216 290.491 214.6 290.491 213.2C290.591 213.4 290.691 213.7 290.791 213.9C290.891 214.8 290.791 215.7 290.491 216.4ZM307.591 217.5C307.391 217.3 307.191 217 307.091 216.8C306.791 216 306.691 215.1 306.791 214.3C306.791 214 306.991 213.8 307.091 213.6C307.091 215 307.391 216.4 307.891 217.7C307.791 217.6 307.591 217.5 307.591 217.5ZM319.291 224.2C313.191 224.2 308.291 219.3 308.291 213.2C308.291 207.1 313.191 202.2 319.291 202.2C325.391 202.2 330.291 207.1 330.291 213.2C330.291 219.2 325.291 224.2 319.291 224.2Z" fill="#302420"/>
<path d="M266.491 196.2C269.791 193.9 273.591 192.9 277.691 193.5C279.391 193.8 280.791 192.2 280.391 190.5C280.191 189.7 279.591 189 278.791 188.7C273.191 187 267.591 187.9 263.291 192.3C262.691 192.9 262.491 193.8 262.691 194.6V194.8C263.091 196.4 264.991 197.2 266.491 196.2Z" fill="#2A445D"/>
<g opacity="0.1">
<g opacity="0.1">
<g opacity="0.1">
<path opacity="0.1" d="M291.591 320.9L261.291 288.8L281.691 333.8L286.491 327.5L291.591 320.9Z" fill="white"/>
</g>
</g>
</g>
<g opacity="0.1">
<g opacity="0.1">
<g opacity="0.1">
<path opacity="0.1" d="M335.291 288.8L314.891 333.8L310.091 327.5L335.291 288.8Z" fill="white"/>
</g>
</g>
</g>
<g opacity="0.2">
<g opacity="0.2">
<g opacity="0.2">
<g opacity="0.2">
<path opacity="0.2" d="M307.191 329.3L307.291 530.5H308.591V331.8L307.191 329.3Z" fill="white"/>
</g>
</g>
</g>
</g>
<path d="M212.691 442.6C212.691 442.6 209.491 377.5 231.491 369C236.491 367.1 241.191 368.2 244.691 370.1C256.291 376.2 259.191 398.5 260.091 408.7C261.291 421.8 262.991 440.9 260.691 446.2C260.691 446.2 261.491 415.9 256.391 393.8C251.291 371.7 241.791 369.3 235.591 369.6C229.491 369.9 222.391 376.8 218.391 390.2C214.591 403.5 212.691 442.6 212.691 442.6Z" fill="#1A2026"/>
<path d="M209.591 447.4C209.591 447.2 211.091 453.2 216.991 454.5C222.891 455.9 225.891 452.7 225.891 452.7C225.891 452.7 225.491 456.4 226.091 457.4C225.991 457.4 210.091 459.1 209.591 447.4Z" fill="#1A2026"/>
<path d="M264.591 442.9C264.591 442.8 264.791 445.6 263.691 447.9C261.691 452 259.791 452.2 257.591 453.3C252.291 456.1 250.391 452.4 250.391 452.4C250.391 452.4 251.091 455.9 250.791 457C250.791 457 265.791 456.5 264.591 442.9Z" fill="#1A2026"/>
<path d="M234.091 330.8L237.391 330.1L237.191 331.8L234.091 332.5V330.8Z" fill="#1A2026"/>
<path d="M532.191 560.4H42.0908C38.4908 560.4 31.3908 542 34.9908 542H539.691C543.391 542 535.891 560.4 532.191 560.4Z" fill="#265192"/>
<g opacity="0.1">
<g opacity="0.1">
<g opacity="0.1">
<g opacity="0.1">
<path opacity="0.1" d="M240.191 369.9L240.891 329.5L237.491 330.2L236.791 370.2C218.491 373.3 214.791 405.8 214.191 447.3L214.091 449.6C214.091 458.1 218.591 460.2 224.391 461.1C226.491 461.4 228.691 461.6 230.691 461.6C231.191 462.8 232.391 463.7 233.791 463.7C235.691 463.7 237.291 462.2 237.291 460.2V457.4C237.291 455.5 235.791 453.9 233.791 453.9C232.091 453.9 230.691 455.2 230.391 456.9C225.791 456.7 220.191 455.7 218.291 452.3C216.491 449 217.591 442 217.691 437.2C218.891 400.9 222.891 373.4 239.691 373.4C256.491 373.4 264.391 400.9 265.591 437.1C265.791 441.6 266.491 448.3 264.791 451.7C263.291 454.8 259.091 456.1 254.991 456.7C254.591 455.1 252.991 454 251.291 454.2C249.391 454.4 248.091 456.2 248.291 458L248.591 460.8C248.791 462.7 250.591 464 252.391 463.8C253.791 463.6 254.991 462.6 255.291 461.3C261.891 460.4 269.391 457.5 269.091 448.8V445.4C269.091 445.3 269.091 445.3 269.091 445.2C268.491 402.8 260.191 370.3 240.191 369.9Z" fill="#0E3368"/>
</g>
</g>
</g>
<g opacity="0.1">
<g opacity="0.1">
<g opacity="0.1">
<path opacity="0.1" d="M404.091 402.5C400.691 322.4 363.491 304.2 361.991 303.5C361.991 303.5 364.191 305.2 373.491 318.1C383.191 331.5 398.291 355.7 400.291 402.6C392.291 403.7 386.091 410.6 386.091 418.9C386.091 428 393.491 435.4 402.591 435.4C411.691 435.4 419.091 428 419.091 418.9C418.991 410.4 412.491 403.3 404.091 402.5Z" fill="#0E3368"/>
</g>
</g>
</g>
</g>
<path d="M376.391 550.4H215.691C214.791 550.4 214.091 549.7 214.091 548.8V548.6C214.091 547.7 214.791 547 215.691 547H376.391C377.291 547 377.991 547.7 377.991 548.6V548.8C377.991 549.7 377.291 550.4 376.391 550.4Z" fill="#588AC4"/>
<path d="M100.591 516.8L299.991 540.3L110.491 542.4C110.491 542.4 97.2908 538.7 100.591 516.8Z" fill="#8FA7D7"/>
<path d="M524.791 433.2C523.091 432.2 435.191 540.3 436.291 540.3C437.391 540.3 512.291 542.1 513.191 540.3C514.091 538.5 542.991 437.6 542.991 437.6C542.991 437.6 530.991 436.9 524.791 433.2Z" fill="#8FA7D7"/>
<path d="M483.791 170.5C482.491 170.5 481.191 170 480.191 169.1L460.591 151C458.491 149 458.291 145.7 460.291 143.5C462.291 141.4 465.591 141.2 467.791 143.2L482.691 157L504.991 120.2C506.491 117.7 509.791 116.9 512.291 118.4C514.791 119.9 515.591 123.2 514.091 125.7L488.291 168C487.491 169.4 486.091 170.3 484.491 170.5C484.291 170.5 484.091 170.5 483.791 170.5Z" fill="#5CBFAB"/>
</g>
<defs>
<clipPath id="clip0">
<rect width="700" height="560" fill="white"/>
</clipPath>
</defs>
</svg>
