<svg width="185" height="87" viewBox="0 0 185 87" fill="none" xmlns="http://www.w3.org/2000/svg">
<circle cx="4.03125" cy="81.9688" r="4.03125" fill="#E6F0FF"/>
<circle cx="30.0312" cy="81.9688" r="4.03125" fill="#E6F0FF"/>
<circle cx="55.0938" cy="81.9688" r="4.03125" fill="#E6F0FF"/>
<circle cx="80.0312" cy="81.9688" r="4.03125" fill="#E6F0FF"/>
<circle cx="103.469" cy="81.9688" r="4.03125" fill="#E6F0FF"/>
<circle cx="155.031" cy="82.0312" r="4.03125" fill="#E6F0FF"/>
<circle cx="130.031" cy="82.0312" r="4.03125" fill="#E6F0FF"/>
<circle cx="180.031" cy="82.0938" r="4.03125" fill="#E6F0FF"/>
<circle cx="55.0938" cy="55.0938" r="4.03125" fill="#E6F0FF"/>
<circle cx="4.03125" cy="55.0312" r="4.03125" fill="#E6F0FF"/>
<circle cx="81.9688" cy="55.0938" r="4.03125" fill="#E6F0FF"/>
<circle cx="30.9062" cy="55.0312" r="4.03125" fill="#E6F0FF"/>
<circle cx="106.156" cy="55.0938" r="4.03125" fill="#E6F0FF"/>
<circle cx="130.344" cy="55.0938" r="4.03125" fill="#E6F0FF"/>
<circle cx="154.531" cy="55.0938" r="4.03125" fill="#E6F0FF"/>
<circle cx="179.031" cy="55.0938" r="4.03125" fill="#E6F0FF"/>
<circle cx="4.03125" cy="30.9062" r="4.03125" fill="#E6F0FF"/>
<circle cx="30.9062" cy="30.9062" r="4.03125" fill="#E6F0FF"/>
<circle cx="55.0938" cy="30.9062" r="4.03125" fill="#E6F0FF"/>
<circle cx="79.2812" cy="30.9062" r="4.03125" fill="#E6F0FF"/>
<circle cx="103.469" cy="30.9062" r="4.03125" fill="#E6F0FF"/>
<circle cx="155.031" cy="31.0312" r="4.03125" fill="#E6F0FF"/>
<circle cx="127.656" cy="30.9062" r="4.03125" fill="#E6F0FF"/>
<circle cx="179.219" cy="31.0312" r="4.03125" fill="#E6F0FF"/>
<circle cx="52.4062" cy="4.03125" r="4.03125" fill="#E6F0FF"/>
<circle cx="31.0312" cy="4.03125" r="4.03125" fill="#E6F0FF"/>
<circle cx="4.03125" cy="4.03125" r="4.03125" fill="#E6F0FF"/>
<circle cx="79.2812" cy="4.03125" r="4.03125" fill="#E6F0FF"/>
<circle cx="103.469" cy="4.03125" r="4.03125" fill="#E6F0FF"/>
<circle cx="127.656" cy="4.03125" r="4.03125" fill="#E6F0FF"/>
<circle cx="151.844" cy="4.03125" r="4.03125" fill="#E6F0FF"/>
<circle cx="179.031" cy="4.03125" r="4.03125" fill="#E6F0FF"/>
</svg>
