<svg xmlns="http://www.w3.org/2000/svg" width="184.953" height="60.5" viewBox="0 0 184.953 60.5"><g transform="translate(-96.641 -935.825)"><path d="M281.594,988.149a8.176,8.176,0,0,1-8.174,8.177h-168.6a8.177,8.177,0,0,1-8.176-8.177V944a8.177,8.177,0,0,1,8.176-8.176h168.6A8.175,8.175,0,0,1,281.594,944Z" transform="translate(0 0)"/><g transform="translate(109.048 945.23)"><path d="M167.461,1010.711a29.964,29.964,0,0,1-2.708,5.057c-1.759,2.678-4.238,6.013-7.31,6.041-2.73.025-3.431-1.777-7.135-1.757s-4.478,1.788-7.208,1.763c-3.072-.028-5.421-3.04-7.18-5.717-4.919-7.488-5.433-16.275-2.4-20.946a10.884,10.884,0,0,1,8.754-5.263c3.256,0,5.3,1.786,7.995,1.786,2.611,0,4.2-1.789,7.967-1.789a10.624,10.624,0,0,1,8.008,4.229C159.206,997.97,160.349,1008.023,167.461,1010.711Z" transform="translate(-131.637 -980.125)" fill="#fff"/><g transform="translate(17.219 0)"><path d="M186.732,969.123a9.139,9.139,0,0,0,2.029-6.768,9.874,9.874,0,0,0-6.373,3.428,8.483,8.483,0,0,0-2.083,6.6A8.333,8.333,0,0,0,186.732,969.123Z" transform="translate(-180.207 -962.355)" fill="#fff"/></g></g><g transform="translate(152.81 945.32)"><g transform="translate(0 14.493)"><path d="M262.128,1004.42l-7.046,20.74h3.227l2.1-6.368h6.822l2.163,6.368h3.316l-7.076-20.74Zm1.672,3.41c.238.926.495,1.887.825,2.926l1.9,5.5h-5.4l1.873-5.535C263.277,1009.823,263.547,1008.854,263.8,1007.83Z" transform="translate(-255.082 -1004.09)" fill="#fff"/><path d="M316,1019.586a5.871,5.871,0,0,0-4.989,2.393l-.125-2.063h-2.87l.017.264c.085,1.285.12,2.7.12,4.73V1040.9h3.138v-7.46a5.51,5.51,0,0,0,4.29,1.843,6.469,6.469,0,0,0,4.755-2.021,8.573,8.573,0,0,0,2.1-6.036,8.347,8.347,0,0,0-1.823-5.511A5.97,5.97,0,0,0,316,1019.586Zm-.782,2.6c2.8,0,4.049,2.591,4.049,5.159,0,3.312-1.6,5.369-4.168,5.369a3.8,3.8,0,0,1-3.7-2.912,4,4,0,0,1-.111-1.016v-2.523a4.726,4.726,0,0,1,.1-.775c.016-.086.033-.172.045-.255A3.974,3.974,0,0,1,315.216,1022.184Z" transform="translate(-289.249 -1013.879)" fill="#fff"/><path d="M361.579,1019.586a5.874,5.874,0,0,0-4.989,2.393l-.125-2.063H353.6l.016.264c.085,1.286.121,2.7.121,4.73V1040.9h3.138v-7.46a5.508,5.508,0,0,0,4.288,1.843,6.478,6.478,0,0,0,4.757-2.021,8.584,8.584,0,0,0,2.1-6.036,8.348,8.348,0,0,0-1.824-5.511A5.968,5.968,0,0,0,361.579,1019.586Zm-.781,2.6c2.8,0,4.048,2.591,4.048,5.159,0,3.312-1.6,5.369-4.168,5.369a3.8,3.8,0,0,1-3.7-2.912,4.007,4.007,0,0,1-.111-1.016v-2.523a4.656,4.656,0,0,1,.1-.777c.016-.085.031-.169.045-.252A3.971,3.971,0,0,1,360.8,1022.184Z" transform="translate(-318.671 -1013.879)" fill="#fff"/><path d="M419.616,1012.606c-2.929-1.134-3.867-2.026-3.867-3.674,0-1.388,1.1-2.787,3.567-2.787a7.131,7.131,0,0,1,3.684.925l.266.164.886-2.619-.175-.1a9.1,9.1,0,0,0-4.57-1.025c-4,0-6.8,2.362-6.8,5.744,0,2.727,1.75,4.634,5.508,6,2.663,1,3.654,2.015,3.654,3.763,0,1.978-1.529,3.206-3.989,3.206a8.587,8.587,0,0,1-4.523-1.283l-.272-.174-.842,2.679.155.1a10.748,10.748,0,0,0,5.3,1.363c5.393,0,7.305-3.288,7.305-6.1C424.909,1015.881,423.376,1014.09,419.616,1012.606Z" transform="translate(-356.464 -1003.488)" fill="#fff"/><path d="M454.376,1010.439l-3.078.966v2.607h-2.253v2.508H451.3v7.682a5.872,5.872,0,0,0,1.087,3.981,4.022,4.022,0,0,0,3.036,1.192,7.4,7.4,0,0,0,2.426-.374l.176-.062-.15-2.512-.3.092a4.729,4.729,0,0,1-1.46.169c-1.216,0-1.735-.769-1.735-2.575v-7.592h3.785v-2.508h-3.785Z" transform="translate(-380.283 -1007.975)" fill="#fff"/><path d="M483.118,1019.586c-4.391,0-7.456,3.277-7.456,7.967,0,4.55,2.967,7.727,7.217,7.727h.029c3.592,0,7.456-2.5,7.456-8a7.928,7.928,0,0,0-2-5.55A6.983,6.983,0,0,0,483.118,1019.586Zm-.091,2.477c2.823,0,4.108,2.752,4.108,5.31,0,3.146-1.754,5.429-4.168,5.429h-.03c-2.38,0-4.107-2.245-4.107-5.338C478.831,1024.776,480.129,1022.063,483.028,1022.063Z" transform="translate(-397.463 -1013.879)" fill="#fff"/><path d="M530.022,1019.732l-.188-.048a3.021,3.021,0,0,0-.78-.1,4.476,4.476,0,0,0-3.934,2.526l-.092-2.2h-2.816l.018.264c.084,1.242.118,2.637.118,4.519l-.029,10.251h3.138v-8a8.094,8.094,0,0,1,.087-1.216,3.468,3.468,0,0,1,3.3-3.162,8.01,8.01,0,0,1,.842.053l.336.035Z" transform="translate(-427.51 -1013.879)" fill="#fff"/><path d="M551.226,1019.5c-4.177,0-7.095,3.338-7.095,8.117,0,4.6,2.9,7.577,7.4,7.577a12.035,12.035,0,0,0,4.968-.953l.189-.085-.6-2.338-.262.106a9.723,9.723,0,0,1-3.932.7,4.362,4.362,0,0,1-4.7-4.55l10.128.031.041-.2a6.982,6.982,0,0,0,.094-1.31C557.451,1023.325,555.821,1019.5,551.226,1019.5Zm-.209,2.387a3.1,3.1,0,0,1,2.3.879,4.466,4.466,0,0,1,1.081,2.921h-7.157C547.536,1023.878,548.67,1021.889,551.017,1021.889Z" transform="translate(-441.659 -1013.825)" fill="#fff"/></g><path d="M255.082,964.084a22.873,22.873,0,0,1,3.01-.2,6.717,6.717,0,0,1,4.418,1.209,4.3,4.3,0,0,1,1.554,3.539,4.969,4.969,0,0,1-1.57,3.816,7.282,7.282,0,0,1-4.839,1.413,21.765,21.765,0,0,1-2.573-.117Zm1.424,8.695a10.092,10.092,0,0,0,1.424.059c3.01.014,4.644-1.515,4.644-4.165.016-2.345-1.44-3.787-4.418-3.787a8.955,8.955,0,0,0-1.651.131Z" transform="translate(-255.082 -963.429)" fill="#fff"/><path d="M287.818,978.809a3.538,3.538,0,0,1-3.754-3.626,3.636,3.636,0,0,1,3.884-3.743,3.51,3.51,0,0,1,3.77,3.612,3.649,3.649,0,0,1-3.883,3.757Zm.049-.961a2.508,2.508,0,0,0,2.379-2.753,2.395,2.395,0,1,0-2.4,2.753Z" transform="translate(-273.789 -968.309)" fill="#fff"/><path d="M309.357,971.891l1.052,3.569c.21.786.421,1.529.566,2.257h.049c.178-.714.437-1.471.7-2.243L313,971.891h1.2l1.214,3.524c.291.831.518,1.588.7,2.3h.049a19.505,19.505,0,0,1,.6-2.287l1.116-3.539h1.408l-2.525,7.049h-1.295l-1.2-3.364a23.107,23.107,0,0,1-.7-2.33h-.032a19.356,19.356,0,0,1-.713,2.345l-1.262,3.349h-1.295l-2.363-7.049Z" transform="translate(-289.175 -968.6)" fill="#fff"/><path d="M343.893,973.508c0-.743-.016-1.325-.065-1.908h1.263l.08,1.151h.033a2.966,2.966,0,0,1,2.589-1.311,2.681,2.681,0,0,1,2.767,3v4.209h-1.423v-4.063c0-1.136-.47-2.1-1.813-2.1a2.031,2.031,0,0,0-1.909,1.311,1.726,1.726,0,0,0-.1.6v4.252h-1.424Z" transform="translate(-312.366 -968.309)" fill="#fff"/><path d="M369.346,962.607h1.424v10.34h-1.424Z" transform="translate(-328.838 -962.607)" fill="#fff"/><path d="M382.186,978.809a3.538,3.538,0,0,1-3.754-3.626,3.636,3.636,0,0,1,3.884-3.743,3.51,3.51,0,0,1,3.77,3.612,3.65,3.65,0,0,1-3.884,3.757Zm.048-.961a2.508,2.508,0,0,0,2.379-2.753,2.395,2.395,0,1,0-2.4,2.753Z" transform="translate(-334.703 -968.309)" fill="#fff"/><path d="M409.49,976.96a10.617,10.617,0,0,0,.114,1.689h-1.279l-.129-.888h-.048a3.011,3.011,0,0,1-2.4,1.048,2.135,2.135,0,0,1-2.4-2.025c0-1.7,1.683-2.636,4.709-2.622v-.145c0-.583-.177-1.646-1.78-1.631a4.087,4.087,0,0,0-2.055.524l-.324-.859a5.515,5.515,0,0,1,2.59-.612c2.411,0,2.993,1.471,2.993,2.884Zm-1.391-1.908c-1.553-.029-3.318.218-3.318,1.587a1.191,1.191,0,0,0,1.327,1.224,1.974,1.974,0,0,0,1.925-1.18,1.176,1.176,0,0,0,.065-.408Z" transform="translate(-350.791 -968.309)" fill="#fff"/><path d="M432.826,962.607v8.52c0,.626.017,1.34.065,1.82h-1.278l-.065-1.223h-.033a2.931,2.931,0,0,1-2.654,1.384,3.361,3.361,0,0,1-3.366-3.583,3.514,3.514,0,0,1,3.511-3.786,2.694,2.694,0,0,1,2.364,1.063h.032v-4.195Zm-1.424,6.16a2.134,2.134,0,0,0-.065-.553,2.059,2.059,0,0,0-2.055-1.471,2.412,2.412,0,0,0-2.347,2.709,2.338,2.338,0,0,0,2.314,2.621,2.119,2.119,0,0,0,2.087-1.529,2,2,0,0,0,.065-.553Z" transform="translate(-365.082 -962.607)" fill="#fff"/><path d="M464.674,978.809a3.538,3.538,0,0,1-3.754-3.626,3.637,3.637,0,0,1,3.884-3.743,3.51,3.51,0,0,1,3.771,3.612,3.65,3.65,0,0,1-3.883,3.757Zm.049-.961A2.508,2.508,0,0,0,467.1,975.1a2.394,2.394,0,1,0-2.395,2.753Z" transform="translate(-387.948 -968.309)" fill="#fff"/><path d="M487.463,973.508c0-.743-.017-1.325-.065-1.908h1.262l.082,1.151h.032a2.966,2.966,0,0,1,2.589-1.311,2.681,2.681,0,0,1,2.768,3v4.209h-1.424v-4.063c0-1.136-.469-2.1-1.813-2.1a2.034,2.034,0,0,0-1.91,1.311,1.734,1.734,0,0,0-.1.6v4.252h-1.424Z" transform="translate(-405.039 -968.309)" fill="#fff"/><path d="M522.69,967.127v1.689h2.038v.976H522.69v3.8c0,.873.275,1.369,1.068,1.369a2.931,2.931,0,0,0,.825-.088l.064.976a4.28,4.28,0,0,1-1.262.175,2.156,2.156,0,0,1-1.537-.539,2.559,2.559,0,0,1-.55-1.85v-3.845h-1.214v-.976H521.3v-1.3Z" transform="translate(-426.137 -965.525)" fill="#fff"/><path d="M537.705,962.607h1.424v4.4h.033a2.417,2.417,0,0,1,1.02-.9,3,3,0,0,1,1.456-.364,2.679,2.679,0,0,1,2.734,3.015v4.194h-1.424V968.9c0-1.151-.469-2.1-1.813-2.1a2.047,2.047,0,0,0-1.91,1.282,1.41,1.41,0,0,0-.1.612v4.252h-1.424Z" transform="translate(-437.511 -962.607)" fill="#fff"/><path d="M562.818,975.316a2.387,2.387,0,0,0,2.671,2.447,5.937,5.937,0,0,0,2.17-.35l.259.9a7,7,0,0,1-2.622.452c-2.4,0-3.852-1.442-3.852-3.553a3.589,3.589,0,0,1,3.689-3.816,3.085,3.085,0,0,1,3.22,3.321,2.962,2.962,0,0,1-.048.611Zm4.16-.918a1.891,1.891,0,0,0-1.959-2.083,2.217,2.217,0,0,0-2.185,2.083Z" transform="translate(-452.834 -968.281)" fill="#fff"/></g></g></svg>