<svg xmlns="http://www.w3.org/2000/svg" xmlns:xlink="http://www.w3.org/1999/xlink" width="186" height="60.843" viewBox="0 0 186 60.843"><defs><clipPath id="a"><path d="M161.363,344.475l-8.387-4.842L136.8,330.292c-.9-.519-1.793-.2-1.793.879v38.056c0,.812.64,1.163,1.42.712l16.55-9.556,8.386-4.842,8.062-4.654c.946-.547.855-1.3.057-1.726S161.363,344.475,161.363,344.475Z" transform="translate(-135.006 -330.047)" fill="none"/></clipPath><linearGradient id="b" x1="0.5" x2="0.5" y2="1" gradientUnits="objectBoundingBox"><stop offset="0" stop-color="#006aa2"/><stop offset="0.345" stop-color="#2f8da6"/><stop offset="0.786" stop-color="#66b6ac"/><stop offset="1" stop-color="#7cc6af"/></linearGradient><linearGradient id="c" y1="0.5" x2="1" y2="0.5" gradientUnits="objectBoundingBox"><stop offset="0" stop-color="#4ab59d"/><stop offset="1" stop-color="#dfe385"/></linearGradient><linearGradient id="d" x1="0.5" x2="0.5" y2="1" gradientUnits="objectBoundingBox"><stop offset="0" stop-color="#e4282d"/><stop offset="0.316" stop-color="#ba2d4e"/><stop offset="0.777" stop-color="#83357b"/><stop offset="1" stop-color="#6e388d"/></linearGradient><linearGradient id="e" x1="0.5" x2="0.5" y2="1" gradientUnits="objectBoundingBox"><stop offset="0" stop-color="#f07165"/><stop offset="0.659" stop-color="#faa460"/><stop offset="1" stop-color="#ffba5e"/></linearGradient></defs><g transform="translate(-766 -2990)"><g transform="translate(669.359 2693.926)"><path d="M282.641,348.694a8.222,8.222,0,0,1-8.22,8.223H104.863a8.224,8.224,0,0,1-8.222-8.223V304.3a8.223,8.223,0,0,1,8.222-8.223H274.42a8.222,8.222,0,0,1,8.22,8.223Z" fill="#1a1818"/><g transform="translate(110.592 308.428)"><g transform="translate(0 0)" clip-path="url(#a)"><path d="M135.006,328.285v41.2l20.777-20.6Z" transform="translate(-135.006 -328.926)" fill="url(#b)"/><path d="M161.363,343.091l-8.387-4.842-17.97-10.376v.15l20.777,20.6Z" transform="translate(-135.006 -328.664)" fill="url(#c)"/><path d="M135.006,405.538v.15l17.97-10.376,8.387-4.842-5.58-5.533Z" transform="translate(-135.006 -364.977)" fill="url(#d)"/><path d="M197.72,369.721l-5.58,5.534,5.58,5.533,9.585-5.533Z" transform="translate(-171.363 -355.294)" fill="url(#e)"/></g></g><g transform="translate(235.82 319.213)"><path d="M484.943,385.352a5.181,5.181,0,0,1-2.137-.432,4.028,4.028,0,0,1-1.624-1.328h-.131a16.1,16.1,0,0,1,.131,1.99v4.93h-1.814V373.151h1.476l.251,1.64h.087a4.218,4.218,0,0,1,1.63-1.421,4.949,4.949,0,0,1,2.131-.437,4.429,4.429,0,0,1,3.679,1.629,8.677,8.677,0,0,1-.021,9.157A4.44,4.44,0,0,1,484.943,385.352Zm-.263-10.878a3.216,3.216,0,0,0-2.656,1.017,5.235,5.235,0,0,0-.843,3.236v.4a6,6,0,0,0,.843,3.614,3.2,3.2,0,0,0,2.7,1.087,2.809,2.809,0,0,0,2.434-1.257,5.966,5.966,0,0,0,.88-3.466,5.742,5.742,0,0,0-.88-3.438A2.9,2.9,0,0,0,484.681,374.474Z" transform="translate(-479.368 -368.121)" fill="#f9f9f9"/><path d="M516.759,376.715h-1.815V359.7h1.815Z" transform="translate(-502.007 -359.703)" fill="#f9f9f9"/><path d="M534.163,385.171l-.361-1.706h-.087a5.027,5.027,0,0,1-1.788,1.525,5.43,5.43,0,0,1-2.224.4,4,4,0,0,1-2.793-.918,3.348,3.348,0,0,1-1.012-2.613q0-3.629,5.805-3.8l2.034-.066v-.743a3.035,3.035,0,0,0-.607-2.083,2.493,2.493,0,0,0-1.94-.673,7.9,7.9,0,0,0-3.389.919l-.558-1.389a8.526,8.526,0,0,1,1.941-.754,8.4,8.4,0,0,1,2.115-.273,4.565,4.565,0,0,1,3.176.951,3.973,3.973,0,0,1,1.033,3.051v8.177Zm-4.1-1.279a3.686,3.686,0,0,0,2.662-.929,3.441,3.441,0,0,0,.968-2.6v-1.082l-1.816.076a6.6,6.6,0,0,0-3.121.673,2.028,2.028,0,0,0-.956,1.853,1.867,1.867,0,0,0,.6,1.5A2.47,2.47,0,0,0,530.063,383.892Z" transform="translate(-508.977 -368.159)" fill="#f9f9f9"/><path d="M555.222,373.533h1.945l2.624,6.833a26.106,26.106,0,0,1,1.072,3.379h.088q.142-.559.6-1.909t2.968-8.3h1.947l-5.15,13.645a6.807,6.807,0,0,1-1.788,2.871,3.8,3.8,0,0,1-2.508.846,7.342,7.342,0,0,1-1.64-.185v-1.454a6.338,6.338,0,0,0,1.345.131,2.772,2.772,0,0,0,2.668-2.1l.667-1.705Z" transform="translate(-527.638 -368.504)" fill="#f9f9f9"/></g><g transform="translate(153.085 317.873)"><path d="M385.891,375.016a4.225,4.225,0,0,1,1.779,3.384c0,1.854-1.053,2.732-2.106,3.558a1.763,1.763,0,0,0-.7,1.23,1.374,1.374,0,0,0,.652,1.077l.9.7c1.1.928,2.1,1.78,2.1,3.51,0,2.356-2.281,4.736-6.591,4.736-3.635,0-5.388-1.729-5.388-3.585a3.606,3.606,0,0,1,1.93-3.058,10.8,10.8,0,0,1,4.787-1.153,2.622,2.622,0,0,1-.752-1.7,2.262,2.262,0,0,1,.251-.979c-.277.026-.552.051-.8.051a3.962,3.962,0,0,1-4.16-3.934,4.509,4.509,0,0,1,1.6-3.359,6.835,6.835,0,0,1,4.488-1.379h5.162l-1.6.9Zm-1.78,11.128a3.887,3.887,0,0,0-.576-.026,10.028,10.028,0,0,0-2.632.4,2.815,2.815,0,0,0-2.156,2.581c0,1.779,1.73,3.059,4.412,3.059,2.4,0,3.684-1.155,3.684-2.708C386.844,388.172,386.017,387.5,384.111,386.144Zm.727-4.762a2.535,2.535,0,0,0,.625-1.83c0-1.8-1.077-4.611-3.156-4.611a2.341,2.341,0,0,0-1.755.827,2.9,2.9,0,0,0-.552,1.855c0,1.679.978,4.461,3.134,4.461A2.566,2.566,0,0,0,384.839,381.382Z" transform="translate(-331.201 -367.533)" fill="#f9f9f9"/><path d="M348.178,385.121a5.905,5.905,0,0,1-6.1-5.906,6.2,6.2,0,0,1,6.482-6.079,5.85,5.85,0,0,1,5.979,5.9A6.114,6.114,0,0,1,348.178,385.121Zm3.127-2.027a4.527,4.527,0,0,0,.752-2.778c0-2.2-1.051-6.406-4.154-6.406a3.486,3.486,0,0,0-2.251.852,3.786,3.786,0,0,0-1.152,3.054c0,2.475,1.226,6.553,4.255,6.553A3.2,3.2,0,0,0,351.305,383.094Z" transform="translate(-309.266 -366.911)" fill="#f9f9f9"/><path d="M310.882,385.121a5.905,5.905,0,0,1-6.106-5.906,6.2,6.2,0,0,1,6.482-6.079,5.85,5.85,0,0,1,5.979,5.9A6.114,6.114,0,0,1,310.882,385.121Zm3.128-2.027a4.533,4.533,0,0,0,.751-2.778c0-2.2-1.051-6.406-4.154-6.406a3.487,3.487,0,0,0-2.252.852,3.786,3.786,0,0,0-1.151,3.054c0,2.475,1.225,6.553,4.254,6.553A3.2,3.2,0,0,0,314.01,383.094Z" transform="translate(-285.532 -366.911)" fill="#f9f9f9"/><path d="M269.189,374.817l-3.6.83a26.662,26.662,0,0,1-4.15.427c-6.944,0-9.585-5.107-9.585-9.107,0-4.88,3.748-9.407,10.164-9.407a14.482,14.482,0,0,1,3.848.528,9.809,9.809,0,0,1,3.321,1.56l-2.088,1.987-.88.2.629-1.006a7.19,7.19,0,0,0-5.383-2.364c-3.975,0-6.969,3.02-6.969,7.422a8.9,8.9,0,0,0,8.905,9.181,7.492,7.492,0,0,0,3.2-.629v-4.05l-3.8.2,2.011-1.083h5.334l-.653.629a.588.588,0,0,0-.252.4c-.026.227-.05.957-.05,1.208Z" transform="translate(-251.856 -357)" fill="#f9f9f9"/><path d="M414.764,373.112c-.831-.076-1-.226-1-1.208V357.666c.005-.054.009-.11.014-.162.1-.88.352-1.031,1.134-1.484h-3.6l-1.887.906h1.923v15.533c0,.5-.1.578-.679,1.332h4.453l.931-.552C415.621,373.187,415.193,373.162,414.764,373.112Z" transform="translate(-352.122 -356.019)" fill="#f9f9f9"/><path d="M436.309,384.248c-.274.15-.549.326-.823.45a5.818,5.818,0,0,1-2.426.475,5.339,5.339,0,0,1-3.323-.975,6.466,6.466,0,0,1-2.547-5.272,5.662,5.662,0,0,1,5.721-5.77,4.856,4.856,0,0,1,2.575.7,4.136,4.136,0,0,1,1.747,2.472l-5.87,2.374-1.924.15c.624,3.173,2.772,5.02,5.146,5.02a6.456,6.456,0,0,0,3.048-.873Zm-2.347-7.446c.473-.175.724-.325.724-.674a2.479,2.479,0,0,0-2.474-2.148c-1,0-2.873.775-2.873,3.472,0,.425.05.874.076,1.325Z" transform="translate(-363.43 -366.924)" fill="#f9f9f9"/><g transform="translate(74.545 6.232)"><path d="M457.591,373.327v1.648h-.2v-1.648h-.545v-.171h1.291v.171Z" transform="translate(-456.846 -373.156)" fill="#f9f9f9"/><path d="M462.672,374.975v-1.664h-.009l-.508,1.664H462l-.512-1.664h-.006v1.664H461.3v-1.819h.312l.464,1.471h.006l.456-1.471h.316v1.819Z" transform="translate(-459.679 -373.156)" fill="#f9f9f9"/></g></g><g transform="translate(153.128 308.331)"><path d="M256.927,335.189h-1.25a8.294,8.294,0,0,0-.356-1.461h-1.8a7.551,7.551,0,0,0-.367,1.461h-1.176q0-.152.912-2.5a19.659,19.659,0,0,0,.912-2.586h1.476a21.594,21.594,0,0,0,.826,2.548A22.319,22.319,0,0,1,256.927,335.189Zm-1.8-2.207a22.1,22.1,0,0,1-.668-2.18h-.063q0,.153-.691,2.18Z" transform="translate(-251.974 -329.986)" fill="#f7f8f8"/><path d="M272.112,335.189h-.965a9.508,9.508,0,0,0-1.074-1.691,9.316,9.316,0,0,1-1.281-2.207h-.063a13.765,13.765,0,0,1,.1,1.547q0,.965.055,2.352h-.961q.059-1.211.059-2.66,0-1.426-.059-2.426h1.16a7.351,7.351,0,0,0,.965,1.652,9.728,9.728,0,0,1,1.18,2.082h.059a14.826,14.826,0,0,1-.093-1.563q0-1.058-.055-2.172h.977q-.055.969-.055,2.426T272.112,335.189Z" transform="translate(-262.121 -329.986)" fill="#f7f8f8"/><path d="M287.5,332.429a2.881,2.881,0,0,1-.711,1.938,2.483,2.483,0,0,1-1.992.828q-.578,0-1.594-.047.051-1.18.051-2.66,0-1.421-.051-2.426h.684q.168,0,.5-.012t.433-.012a2.634,2.634,0,0,1,2.045.7A2.431,2.431,0,0,1,287.5,332.429Zm-1.067.168a1.882,1.882,0,0,0-.437-1.264,1.658,1.658,0,0,0-1.336-.513,4.14,4.14,0,0,0-.461.035q.039.782.039,1.633,0,.934.039,1.852a2.589,2.589,0,0,0,.508.051,1.476,1.476,0,0,0,1.244-.522A2.013,2.013,0,0,0,286.431,332.6Z" transform="translate(-271.845 -329.944)" fill="#f7f8f8"/><path d="M302.168,335.148h-1.156a7.671,7.671,0,0,0-.7-1.707.911.911,0,0,0-.781-.324q-.227,0-.434,0,0,1,.035,2.027h-1.086q.051-1.18.051-2.66,0-1.421-.051-2.426h.676q.117,0,.49-.012t.689-.012q1.793,0,1.793,1.227a1.376,1.376,0,0,1-1.024,1.356v.059a1.22,1.22,0,0,1,.692.615A13.6,13.6,0,0,1,302.168,335.148Zm-1.465-3.594q0-.777-1-.777a3.4,3.4,0,0,0-.649.055q.043.605.043,1.578.214.008.363.008Q300.7,332.417,300.7,331.554Z" transform="translate(-281.295 -329.944)" fill="#f7f8f8"/><path d="M316.07,332.347a2.806,2.806,0,0,1-.734,1.988,2.383,2.383,0,0,1-1.816.789,2.3,2.3,0,0,1-1.727-.725,2.551,2.551,0,0,1-.7-1.842,2.8,2.8,0,0,1,.734-1.988,2.382,2.382,0,0,1,1.816-.789,2.3,2.3,0,0,1,1.727.723A2.55,2.55,0,0,1,316.07,332.347Zm-1.078.113a2.016,2.016,0,0,0-.418-1.324,1.287,1.287,0,0,0-1.031-.508,1.191,1.191,0,0,0-.969.512,2.042,2.042,0,0,0-.4,1.293,2.012,2.012,0,0,0,.42,1.322,1.287,1.287,0,0,0,1.029.51,1.19,1.19,0,0,0,.969-.514A2.044,2.044,0,0,0,314.992,332.46Z" transform="translate(-289.597 -329.78)" fill="#f7f8f8"/><path d="M328.91,335.189H327.8q.051-1.211.051-2.66,0-1.426-.051-2.426h1.105q-.051.984-.051,2.426Q328.86,334,328.91,335.189Z" transform="translate(-300.229 -329.986)" fill="#f7f8f8"/><path d="M338.9,332.429a2.88,2.88,0,0,1-.711,1.938,2.483,2.483,0,0,1-1.992.828q-.578,0-1.594-.047.051-1.18.051-2.66,0-1.421-.051-2.426h.684q.168,0,.5-.012t.433-.012a2.633,2.633,0,0,1,2.045.7A2.432,2.432,0,0,1,338.9,332.429Zm-1.066.168a1.884,1.884,0,0,0-.437-1.264,1.659,1.659,0,0,0-1.336-.513,4.134,4.134,0,0,0-.461.035q.039.782.039,1.633,0,.934.039,1.852a2.589,2.589,0,0,0,.508.051,1.476,1.476,0,0,0,1.244-.522A2.013,2.013,0,0,0,337.83,332.6Z" transform="translate(-304.552 -329.944)" fill="#f7f8f8"/><path d="M358.4,335.189h-1.25a8.24,8.24,0,0,0-.356-1.461h-1.8a7.539,7.539,0,0,0-.367,1.461H353.45q0-.152.912-2.5a19.62,19.62,0,0,0,.912-2.586h1.476a21.56,21.56,0,0,0,.827,2.548A22.417,22.417,0,0,1,358.4,335.189Zm-1.8-2.207a22.173,22.173,0,0,1-.668-2.18h-.062q0,.153-.691,2.18Z" transform="translate(-316.548 -329.986)" fill="#f7f8f8"/><path d="M373.107,331.394a1.523,1.523,0,0,1-.694,1.379,3.084,3.084,0,0,1-1.7.445q-.184,0-.262-.008,0,.734.043,1.938h-1.1q.051-1.129.051-2.66,0-1.406-.051-2.426h.68q.144,0,.555-.012t.711-.012a2.236,2.236,0,0,1,1.254.336A1.136,1.136,0,0,1,373.107,331.394Zm-1.008.215q0-.836-1.109-.836a3.121,3.121,0,0,0-.586.059q.043.738.043,1.672c.065.005.141.008.227.008Q372.1,332.511,372.1,331.608Z" transform="translate(-326.695 -329.944)" fill="#f7f8f8"/><path d="M385.991,331.394a1.523,1.523,0,0,1-.693,1.379,3.086,3.086,0,0,1-1.7.445c-.123,0-.209,0-.261-.008q0,.734.043,1.938h-1.1q.051-1.129.051-2.66,0-1.406-.051-2.426h.68q.145,0,.555-.012t.711-.012a2.236,2.236,0,0,1,1.254.336A1.136,1.136,0,0,1,385.991,331.394Zm-1.008.215q0-.836-1.109-.836a3.122,3.122,0,0,0-.586.059q.043.738.043,1.672.1.008.227.008Q384.983,332.511,384.983,331.608Z" transform="translate(-334.894 -329.944)" fill="#f7f8f8"/><path d="M404.848,332.347a2.8,2.8,0,0,1-.735,1.988,2.382,2.382,0,0,1-1.816.789,2.3,2.3,0,0,1-1.727-.725,2.552,2.552,0,0,1-.7-1.842,2.805,2.805,0,0,1,.734-1.988,2.384,2.384,0,0,1,1.817-.789,2.3,2.3,0,0,1,1.727.723A2.551,2.551,0,0,1,404.848,332.347Zm-1.078.113a2.014,2.014,0,0,0-.418-1.324,1.286,1.286,0,0,0-1.031-.508,1.192,1.192,0,0,0-.969.512,2.042,2.042,0,0,0-.4,1.293,2.012,2.012,0,0,0,.42,1.322,1.286,1.286,0,0,0,1.029.51,1.189,1.189,0,0,0,.969-.514A2.042,2.042,0,0,0,403.77,332.46Z" transform="translate(-346.091 -329.78)" fill="#f7f8f8"/><path d="M420.775,335.189h-.965a9.511,9.511,0,0,0-1.074-1.691,9.324,9.324,0,0,1-1.281-2.207h-.062a13.845,13.845,0,0,1,.1,1.547q0,.965.055,2.352h-.961q.058-1.211.059-2.66,0-1.426-.059-2.426h1.16a7.362,7.362,0,0,0,.965,1.652,9.728,9.728,0,0,1,1.18,2.082h.059a14.745,14.745,0,0,1-.094-1.563q0-1.058-.055-2.172h.976q-.055.969-.055,2.426T420.775,335.189Z" transform="translate(-356.724 -329.986)" fill="#f7f8f8"/></g></g></g></svg>