<svg xmlns="http://www.w3.org/2000/svg" width="512" height="512" style="" viewBox="0 0 512 512" data-svgdocument="" id="_hkcGc1TWxMQnvrJ-o7pxz" class="fl-svgdocument" x="0" y="0" xmlns:xlink="http://www.w3.org/1999/xlink" data-bbox="24.234086372668813 188.6549819084016 463.93837609432626 134.69003618319672"><rect data-fl-background="" x="0" y="0" width="512" height="512" fill="transparent"></rect><defs id="_UdU2iQyLBTzo8QEQtfiMp" transform="matrix(0.8091716766357422, 0, 0, 0.8091716766357422, 43.9416618347168, 136.5172119140625)"></defs><g id="_2pGrrHDisTubxdFeOQ9h1" transform="matrix(0.7284959554672241, 0, 0, 0.7284959554672241, -69.81403350830078, 92.63506317138672)"><path id="_fclVC_gW3knTSnF4jsxLl" d="M24.777,38.979h-6.758c-1.116,0-2.021,0.905-2.021,2.021v41.355c0,1.116,0.905,2.021,2.021,2.021h40.753   c1.116,0,2.021-0.905,2.021-2.021V41c0-1.116-0.905-2.021-2.021-2.021H43.326V28.354H62.77c4.776,0,8.648,3.872,8.648,8.648v49.351   c0,4.776-3.872,8.648-8.648,8.648H14.021c-4.776,0-8.648-3.872-8.648-8.648V37.002c0-4.776,3.872-8.648,8.648-8.648h10.756V38.979z   " fill="#123c4a" transform="matrix(1.4074040651321411, 1.359120488166809, -1.359120488166809, 1.4074040651321411, 250.65484619140625, 85.92305755615234)"></path><path id="_2yC6JlP49xF4W450B5ghS" d="M75.223,61.021h6.758c1.116,0,2.021-0.905,2.021-2.021V17.646c0-1.116-0.905-2.021-2.021-2.021H41.228   c-1.116,0-2.021,0.905-2.021,2.021V59c0,1.116,0.905,2.021,2.021,2.021h15.446v10.625H37.23c-4.776,0-8.648-3.872-8.648-8.648   V13.648C28.582,8.872,32.454,5,37.23,5h48.749c4.776,0,8.648,3.872,8.648,8.648v49.351c0,4.776-3.872,8.648-8.648,8.648H75.223   V61.021z" fill="#ecb90a" transform="matrix(1.4074040651321411, 1.359120488166809, -1.359120488166809, 1.4074040651321411, 250.6547393798828, 85.92229461669922)"></path></g><path id="_kCfronMV8leRKdbxpuZJG" fill="#123c4a" transform="matrix(0.6979073882102966, 0, 0, 0.6979073882102966, 349.936767578125, 281.132568359375)" text="Ô Xanh" text-anchor="middle" font-size="100" letter-spacing="0" side="left" offset="0.5" dx="0" dy="0" space="preserve" href="" font-family="Monda" font-scale="contain" x="0" y="0" data-fl-textpath="" font-weight="700" font-style="normal" d="M-150.7078515625 0L-191.3378515625 0L-191.3378515625-10.84L-178.1978515625-10.84L-178.1978515625-61.28L-191.3378515625-61.28L-191.3378515625-72.07L-150.7078515625-72.07L-150.7078515625-61.28L-163.7478515625-61.28L-163.7478515625-10.84L-150.7078515625-10.84L-150.7078515625 0ZM-103.51316406250001 1.27Q-112.4231640625 1.27 -117.8931640625 0Q-123.3631640625-1.27 -126.6631640625-3.37Q-129.9531640625-5.47 -131.9131640625-8.76Q-133.8631640625-12.06 -134.5231640625-15.53Q-135.1831640625-18.99 -135.1831640625-23.63L-135.1831640625-23.63L-135.1831640625-47.71Q-135.1831640625-60.6 -129.9531640625-65.77L-129.9531640625-65.77Q-124.7331640625-71 -116.0931640625-72.46L-116.0931640625-72.46Q-111.20316406250001-73.34 -105.0531640625-73.29L-105.0531640625-73.29Q-82.7431640625-73.29 -78.4431640625-61.08L-78.4431640625-61.08Q-76.4931640625-55.62 -76.4931640625-48L-76.4931640625-48L-76.4931640625-47.12L-90.70316406250001-45.46L-90.70316406250001-49.12Q-90.70316406250001-56.64 -93.6531640625-59.28Q-96.6031640625-61.91 -104.95316406250001-61.91Q-113.3031640625-61.91 -116.9931640625-59.25Q-120.6831640625-56.59 -120.6831640625-49.41L-120.6831640625-49.41L-120.6831640625-22.17Q-120.6831640625-14.94 -116.8931640625-12.52Q-113.1131640625-10.11 -104.8631640625-10.11L-104.8631640625-10.11Q-100.51316406250001-10.11 -97.97316406249999-10.57Q-95.4331640625-11.04 -93.70316406250001-12.45Q-91.9631640625-13.87 -91.3331640625-16.21Q-90.70316406250001-18.55 -90.70316406250001-22.46L-90.70316406250001-22.46L-90.70316406250001-24.76L-76.4931640625-24.76L-76.4931640625-23.44Q-76.4931640625-12.74 -79.6431640625-7.98Q-82.78316406249999-3.22 -88.6931640625-0.98Q-94.6031640625 1.27 -103.51316406250001 1.27ZM-51.5392578125-14.36L-51.5392578125-14.36Q-51.5392578125-8.06 -44.6992578125-8.06L-44.6992578125-8.06Q-42.0192578125-8.06 -39.0392578125-9.47Q-36.0592578125-10.89 -34.3492578125-13.48L-34.3492578125-13.48L-34.3492578125-26.56Q-36.6992578125-24.66 -42.5992578125-22.49Q-48.509257812499996-20.31 -50.0292578125-18.48Q-51.5392578125-16.65 -51.5392578125-14.36ZM-33.2792578125-5.81Q-35.5692578125-2.83 -39.8392578125-0.85Q-44.119257812499995 1.12 -50.219257812500004 1.12Q-56.3192578125 1.12 -60.5492578125-2.83Q-64.7692578125-6.79 -64.7692578125-12.94Q-64.7692578125-19.09 -60.9392578125-22.8Q-57.1092578125-26.51 -46.2692578125-29.93L-46.2692578125-29.93Q-39.6692578125-32.03 -37.0092578125-33.69Q-34.3492578125-35.35 -34.3492578125-38.28L-34.3492578125-38.28Q-34.3492578125-44.34 -42.5992578125-44.29L-42.5992578125-44.29Q-47.2392578125-44.29 -48.999257812500005-42.5Q-50.759257812499996-40.72 -50.759257812499996-37.35L-50.759257812499996-37.35L-50.759257812499996-35.3L-63.2092578125-35.3L-63.2092578125-36.87Q-63.2092578125-44.73 -57.9792578125-49.15Q-52.759257812499996-53.56 -41.9192578125-53.56Q-31.079257812500003-53.56 -26.1692578125-48.97Q-21.2692578125-44.38 -21.2692578125-35.79L-21.2692578125-35.79L-21.2692578125-15.04Q-21.2692578125-11.52 -20.3892578125-10.4Q-19.509257812500003-9.28 -17.0192578125-9.28L-17.0192578125-9.28L-17.549257812500002 0.39L-20.3392578125 0.39Q-25.759257812500003 0.39 -28.7792578125-1.1Q-31.8092578125-2.59 -33.2792578125-5.81L-33.2792578125-5.81ZM 27.6149609375 0L 27.6149609375-36.87Q 27.6149609375-43.65  18.3849609375-43.65L 18.3849609375-43.65Q 14.4249609375-43.65  11.304960937499999-41.58Q 8.1749609375-39.5  8.1749609375-35.89L 8.1749609375-35.89L 8.1749609375 0L-5.1050390625 0L-5.1050390625-52.44L 8.1749609375-52.44L 8.1749609375-47.8Q 14.864960937500001-53.66  23.8049609375-53.66Q 32.7349609375-53.66  36.8149609375-49.07Q 40.8949609375-44.48  40.8949609375-37.6L 40.8949609375-37.6L 40.8949609375 0L 27.6149609375 0ZM 76.8354296875 1.12L 76.8354296875 1.12Q 61.5954296875 1.12  57.1554296875-5.71L 57.1554296875-5.71Q 54.3654296875-9.91  54.3654296875-15.97L 54.3654296875-15.97L 54.3654296875-36.96Q 54.3654296875-44.82  60.085429687499996-49.19Q 65.7954296875-53.56  76.3454296875-53.56Q 86.8854296875-53.56  92.2354296875-49.39Q 97.58542968750001-45.21  97.58542968750001-34.13L 97.58542968750001-34.13L 85.08542968750001-33.15Q 85.08542968750001-40.23  83.3754296875-42.29L 83.3754296875-42.29Q 82.3454296875-43.55  80.83542968750001-43.95L 80.83542968750001-43.95Q 79.3654296875-44.29  75.7554296875-44.29L 75.7554296875-44.29Q 67.6554296875-44.29  67.6554296875-36.91L 67.6554296875-36.91L 67.6554296875-15.72Q 67.6554296875-11.62  69.77542968750001-9.91Q 71.8954296875-8.2  76.0754296875-8.2Q 80.2454296875-8.2  81.9554296875-8.96Q 83.6654296875-9.72  84.3954296875-11.84Q 85.1354296875-13.96  85.1354296875-18.55L 85.1354296875-18.55L 97.5354296875-18.55Q 97.4354296875-12.79  96.4554296875-9.18L 96.4554296875-9.18Q 95.4854296875-5.66  93.04542968749999-3.22L 93.04542968749999-3.22Q 88.6454296875 1.07  76.8354296875 1.12ZM 121.7081640625-37.7L 121.7081640625-31.79L 140.5481640625-31.79L 140.5481640625-37.94Q 140.5481640625-42.68  136.7481640625-43.75L 136.7481640625-43.75Q 134.7381640625-44.34  130.6681640625-44.31Q 126.5881640625-44.29  124.1481640625-42.92Q 121.7081640625-41.55  121.7081640625-37.7L 121.7081640625-37.7ZM 121.9981640625 0.24L 121.9981640625 0.24Q 118.0881640625-0.59  114.9681640625-2.54L 114.9681640625-2.54Q 108.4181640625-6.54  108.4181640625-16.41L 108.4181640625-16.41L 108.4181640625-36.87Q 108.4181640625-44.78  114.4281640625-49.17Q 120.4381640625-53.56  130.78816406250002-53.56L 130.78816406250002-53.56Q 153.0981640625-53.56  153.0981640625-36.38L 153.0981640625-36.38L 153.0981640625-23.68L 121.7081640625-23.68L 121.7081640625-15.14Q 121.7081640625-10.79  123.8481640625-9.45Q 125.9981640625-8.11  131.1281640625-8.11Q 136.2581640625-8.11  137.1781640625-8.59L 137.1781640625-8.59Q 139.3781640625-9.81  140.0181640625-11.55Q 140.6481640625-13.28  140.7481640625-16.11L 140.7481640625-16.11L 153.0481640625-16.11Q 152.7581640625-4  144.5081640625-0.78L 144.5081640625-0.78Q 139.6681640625 1.07  132.78816406250002 1.1Q 125.90816406249999 1.12  121.9981640625 0.24ZM 179.5616796875 0L 166.2816796875 0L 166.2816796875-52.44L 179.5616796875-52.44L 179.5616796875-46.19Q 180.7416796875-48.44  184.4516796875-50.2L 184.4516796875-50.2Q 190.8416796875-53.27  196.80167968749998-53.27L 196.80167968749998-53.27Q 197.4816796875-53.27  198.0716796875-53.22L 198.0716796875-53.22L 197.7816796875-41.94Q 189.0416796875-41.5  183.2716796875-38.67L 183.2716796875-38.67Q 180.05167968749998-37.11  179.5616796875-35.16L 179.5616796875-35.16L 179.5616796875 0Z"></path></svg>