<svg xmlns="http://www.w3.org/2000/svg" xmlns:xlink="http://www.w3.org/1999/xlink" viewBox="0 0 113.66 92.01"><defs><style>.cls-1{fill:none;}.cls-2{clip-path:url(#clip-path);}.cls-3{fill:url(#linear-gradient);}.cls-4{clip-path:url(#clip-path-2);}.cls-5{fill:url(#linear-gradient-2);}.cls-6{clip-path:url(#clip-path-3);}.cls-7{fill:url(#linear-gradient-3);}.cls-8{clip-path:url(#clip-path-4);}.cls-9{fill:url(#linear-gradient-4);}</style><clipPath id="clip-path" transform="translate(0 0)"><path class="cls-1" d="M56.83,7.58a49.34,49.34,0,0,1,48.44,40.3,25.42,25.42,0,0,0-12.72-3.36A25.73,25.73,0,0,0,74.9,51.58a25.63,25.63,0,0,0-35.4.07A25.62,25.62,0,0,0,8.31,48.34,49.32,49.32,0,0,1,56.83,7.58M0,56.83c0,.35,0,.7,0,1.05l6.89,2a18.06,18.06,0,0,1,29.52-.27h6.15a18.05,18.05,0,0,1,29.26-.09H78a18.16,18.16,0,0,1,14.6-7.43,18,18,0,0,1,14.32,7.06l6.79-2.3v0A56.83,56.83,0,0,0,0,56.83"/></clipPath><linearGradient id="linear-gradient" x1="-159.45" y1="538.91" x2="-158.45" y2="538.91" gradientTransform="matrix(113.66, 0, 0, -113.66, 18123.24, 61283.27)" gradientUnits="userSpaceOnUse"><stop offset="0" stop-color="#115098"/><stop offset="0.16" stop-color="#14559c"/><stop offset="0.35" stop-color="#1b65a8"/><stop offset="0.57" stop-color="#287ebb"/><stop offset="0.79" stop-color="#39a2d5"/><stop offset="1" stop-color="#4cc8f2"/></linearGradient><clipPath id="clip-path-2" transform="translate(0 0)"><path class="cls-1" d="M10.88,81a10.86,10.86,0,0,0,4.17,8.55h0a10.88,10.88,0,1,0,6.71-19.45A10.9,10.9,0,0,0,10.88,81"/></clipPath><linearGradient id="linear-gradient-2" x1="-159.45" y1="538.91" x2="-158.45" y2="538.91" gradientTransform="matrix(21.77, 0, 0, -21.77, 3481.53, 11811.12)" xlink:href="#linear-gradient"/><clipPath id="clip-path-3" transform="translate(0 0)"><path class="cls-1" d="M46.27,81.05A11,11,0,0,0,56.68,92H57.8a11,11,0,1,0-11.53-11"/></clipPath><linearGradient id="linear-gradient-3" x1="-159.45" y1="538.91" x2="-158.45" y2="538.91" gradientTransform="matrix(21.94, 0, 0, -21.94, 3544.1, 11903.07)" xlink:href="#linear-gradient"/><clipPath id="clip-path-4" transform="translate(0 0)"><path class="cls-1" d="M81.71,80.91A10.85,10.85,0,0,0,98,90.29h0a10.81,10.81,0,0,0,5.29-7.82,11.2,11.2,0,0,0,.11-1.55,10.84,10.84,0,0,0-21.68,0"/></clipPath><linearGradient id="linear-gradient-4" x1="-159.45" y1="538.91" x2="-158.45" y2="538.91" gradientTransform="matrix(21.68, 0, 0, -21.68, 3538.26, 11763.44)" xlink:href="#linear-gradient"/></defs><g id="Layer_2" data-name="Layer 2"><g id="Layer_1-2" data-name="Layer 1"><g class="cls-2"><rect class="cls-3" width="113.66" height="59.88"/></g><g class="cls-4"><rect class="cls-5" x="10.88" y="70.07" width="21.77" height="21.77"/></g><g class="cls-6"><rect class="cls-7" x="46.27" y="70.07" width="21.94" height="21.94"/></g><g class="cls-8"><rect class="cls-9" x="81.71" y="70.07" width="21.68" height="21.68"/></g></g></g></svg>