<?xml version="1.0" encoding="utf-8"?>
<!-- Generator: Adobe Illustrator 24.2.0, SVG Export Plug-In . SVG Version: 6.00 Build 0)  -->
<svg version="1.1" id="Layer_1" xmlns="http://www.w3.org/2000/svg" xmlns:xlink="http://www.w3.org/1999/xlink" x="0px" y="0px"
	 viewBox="0 0 48 48" style="enable-background:new 0 0 48 48;" xml:space="preserve">
<style type="text/css">
	.st0{opacity:0.6;}
	.st1{clip-path:url(#XMLID_4_);}
	.st2{fill:none;stroke:#00ADEE;stroke-width:0.25;stroke-miterlimit:10;}
	.st3{fill:#00ADEE;}
	.st4{opacity:0.2;}
	.st5{clip-path:url(#XMLID_5_);fill:none;stroke:#00ADEE;stroke-width:0.25;stroke-miterlimit:10;}
	.st6{clip-path:url(#XMLID_5_);}
	.st7{fill-rule:evenodd;clip-rule:evenodd;fill:#0068FF;}
</style>
<symbol  id="material_x5F_system_x5F_icon_x5F_grid" viewBox="0 -48 48 48">
	<g id="XMLID_494_" class="st0">
		<defs>
			<rect id="XMLID_495_" x="0" y="-48" class="st0" width="48" height="48"/>
		</defs>
		<clipPath id="XMLID_4_">
			<use xlink:href="#XMLID_495_"  style="overflow:visible;"/>
		</clipPath>
		<g id="XMLID_514_" class="st1">
			<g id="XMLID_743_">
				<line id="XMLID_819_" class="st2" x1="2" y1="-48" x2="2" y2="0"/>
				<line id="XMLID_818_" class="st2" x1="4" y1="-48" x2="4" y2="0"/>
				<line id="XMLID_816_" class="st2" x1="6" y1="-48" x2="6" y2="0"/>
				<line id="XMLID_777_" class="st2" x1="8" y1="-48" x2="8" y2="0"/>
				<line id="XMLID_765_" class="st2" x1="10" y1="-48" x2="10" y2="0"/>
				<line id="XMLID_764_" class="st2" x1="12" y1="-48" x2="12" y2="0"/>
				<line id="XMLID_763_" class="st2" x1="14" y1="-48" x2="14" y2="0"/>
				<line id="XMLID_762_" class="st2" x1="16" y1="-48" x2="16" y2="0"/>
				<line id="XMLID_761_" class="st2" x1="18" y1="-48" x2="18" y2="0"/>
				<line id="XMLID_760_" class="st2" x1="20" y1="-48" x2="20" y2="0"/>
				<line id="XMLID_757_" class="st2" x1="22" y1="-48" x2="22" y2="0"/>
				<line id="XMLID_756_" class="st2" x1="24" y1="-48" x2="24" y2="0"/>
				<line id="XMLID_755_" class="st2" x1="26" y1="-48" x2="26" y2="0"/>
				<line id="XMLID_754_" class="st2" x1="28" y1="-48" x2="28" y2="0"/>
				<line id="XMLID_753_" class="st2" x1="30" y1="-48" x2="30" y2="0"/>
				<line id="XMLID_752_" class="st2" x1="32" y1="-48" x2="32" y2="0"/>
				<line id="XMLID_751_" class="st2" x1="34" y1="-48" x2="34" y2="0"/>
				<line id="XMLID_750_" class="st2" x1="36" y1="-48" x2="36" y2="0"/>
				<line id="XMLID_749_" class="st2" x1="38" y1="-48" x2="38" y2="0"/>
				<line id="XMLID_748_" class="st2" x1="40" y1="-48" x2="40" y2="0"/>
				<line id="XMLID_746_" class="st2" x1="42" y1="-48" x2="42" y2="0"/>
				<line id="XMLID_745_" class="st2" x1="44" y1="-48" x2="44" y2="0"/>
				<line id="XMLID_744_" class="st2" x1="46" y1="-48" x2="46" y2="0"/>
			</g>
			<g id="XMLID_691_">
				<line id="XMLID_742_" class="st2" x1="0" y1="-2" x2="48" y2="-2"/>
				<line id="XMLID_741_" class="st2" x1="0" y1="-4" x2="48" y2="-4"/>
				<line id="XMLID_739_" class="st2" x1="0" y1="-6" x2="48" y2="-6"/>
				<line id="XMLID_738_" class="st2" x1="0" y1="-8" x2="48" y2="-8"/>
				<line id="XMLID_736_" class="st2" x1="0" y1="-10" x2="48" y2="-10"/>
				<line id="XMLID_735_" class="st2" x1="0" y1="-12" x2="48" y2="-12"/>
				<line id="XMLID_734_" class="st2" x1="0" y1="-14" x2="48" y2="-14"/>
				<line id="XMLID_733_" class="st2" x1="0" y1="-16" x2="48" y2="-16"/>
				<line id="XMLID_731_" class="st2" x1="0" y1="-18" x2="48" y2="-18"/>
				<line id="XMLID_730_" class="st2" x1="0" y1="-20" x2="48" y2="-20"/>
				<line id="XMLID_712_" class="st2" x1="0" y1="-22" x2="48" y2="-22"/>
				<line id="XMLID_711_" class="st2" x1="0" y1="-24" x2="48" y2="-24"/>
				<line id="XMLID_710_" class="st2" x1="0" y1="-26" x2="48" y2="-26"/>
				<line id="XMLID_709_" class="st2" x1="0" y1="-28" x2="48" y2="-28"/>
				<line id="XMLID_708_" class="st2" x1="0" y1="-30" x2="48" y2="-30"/>
				<line id="XMLID_702_" class="st2" x1="0" y1="-32" x2="48" y2="-32"/>
				<line id="XMLID_701_" class="st2" x1="0" y1="-34" x2="48" y2="-34"/>
				<line id="XMLID_700_" class="st2" x1="0" y1="-36" x2="48" y2="-36"/>
				<line id="XMLID_699_" class="st2" x1="0" y1="-38" x2="48" y2="-38"/>
				<line id="XMLID_698_" class="st2" x1="0" y1="-40" x2="48" y2="-40"/>
				<line id="XMLID_697_" class="st2" x1="0" y1="-42" x2="48" y2="-42"/>
				<line id="XMLID_696_" class="st2" x1="0" y1="-44" x2="48" y2="-44"/>
				<line id="XMLID_692_" class="st2" x1="0" y1="-46" x2="48" y2="-46"/>
			</g>
			<g id="XMLID_573_">
				<path class="st3" d="M47.7-0.2v-47.5H0.2v47.5H47.7 M48,0H0v-48h48V0L48,0z"/>
			</g>
		</g>
	</g>
</symbol>
<symbol  id="material_x5F_system_x5F_icon_x5F_keylines" viewBox="0 -48 48 48">
	<g id="XMLID_33_" class="st4">
		<defs>
			<rect id="XMLID_164_" x="0" y="-48" class="st4" width="48" height="48"/>
		</defs>
		<clipPath id="XMLID_5_">
			<use xlink:href="#XMLID_164_"  style="overflow:visible;"/>
		</clipPath>
		<line id="XMLID_202_" class="st5" x1="24" y1="0" x2="24" y2="-48"/>
		<line id="XMLID_201_" class="st5" x1="48" y1="-24" x2="0" y2="-24"/>
		<line id="XMLID_200_" class="st5" x1="48" y1="-16" x2="0" y2="-16"/>
		<line id="XMLID_199_" class="st5" x1="48" y1="-32" x2="0" y2="-32"/>
		<line id="XMLID_198_" class="st5" x1="32" y1="-48" x2="32" y2="0"/>
		<line id="XMLID_197_" class="st5" x1="16" y1="-48" x2="16" y2="0"/>
		<line id="XMLID_196_" class="st5" x1="47.7" y1="-0.2" x2="0.2" y2="-47.7"/>
		<line id="XMLID_195_" class="st5" x1="0.2" y1="-0.2" x2="47.7" y2="-47.7"/>
		<path id="XMLID_193_" class="st5" d="M24-14c-5.5,0-10-4.5-10-10c0-5.5,4.5-10,10-10c5.5,0,10,4.5,10,10C34-18.5,29.5-14,24-14z"
			/>
		<path id="XMLID_191_" class="st5" d="M24-4C12.9-4,4-12.9,4-24c0-11.1,8.9-20,20-20c11.1,0,20,8.9,20,20C44-12.9,35.1-4,24-4z"/>
		<path id="XMLID_189_" class="st5" d="M38-6H10c-2.2,0-4-1.8-4-4v-28c0-2.2,1.8-4,4-4h28c2.2,0,4,1.8,4,4v28C42-7.8,40.2-6,38-6z"
			/>
		<path id="XMLID_187_" class="st5" d="M40-8H8c-2.2,0-4-1.8-4-4v-24c0-2.2,1.8-4,4-4h32c2.2,0,4,1.8,4,4l0,24C44-9.8,42.2-8,40-8z"
			/>
		<path id="XMLID_185_" class="st5" d="M40-40v32c0,2.2-1.8,4-4,4H12C9.8-4,8-5.8,8-8v-32c0-2.2,1.8-4,4-4h24C38.2-44,40-42.2,40-40
			z"/>
		<g id="XMLID_165_" class="st6">
			<path class="st3" d="M47.7-0.2v-47.5H0.2v47.5H47.7 M48,0H0v-48h48V0L48,0z"/>
		</g>
	</g>
</symbol>
<use xlink:href="#material_x5F_system_x5F_icon_x5F_grid"  width="48" height="48" id="XMLID_337_" x="0" y="-48" transform="matrix(1 0 0 -1 5.480145e-04 6.103516e-04)" style="display:none;overflow:visible;opacity:0.15;"/>
<use xlink:href="#material_x5F_system_x5F_icon_x5F_keylines"  width="48" height="48" id="XMLID_321_" x="0" y="-48" transform="matrix(1 0 0 -1 5.480145e-04 6.103516e-04)" style="display:none;overflow:visible;"/>
<path class="st7" d="M24.8,21.1v-0.8h2.3v10.6h-1.3c-0.5,0-1-0.4-1-1c0,0,0,0,0,0c-0.9,0.7-2,1.1-3.2,1.1c-3,0-5.5-2.5-5.5-5.5
	s2.5-5.5,5.5-5.5C22.8,20,23.9,20.4,24.8,21.1C24.8,21.1,24.8,21.1,24.8,21.1z M15.5,16.9v0.3c0,0.6-0.1,1.2-0.5,1.8l-0.1,0.1
	c-0.1,0.1-0.3,0.3-0.4,0.5l-7.2,9.1h8.2V30c0,0.5-0.4,1-1,1H3.9v-0.6c0-0.7,0.2-1.1,0.4-1.4l7.7-9.6H4.2v-2.4H15.5z M29.8,30.9
	c-0.4,0-0.8-0.4-0.8-0.8V16.9h2.4v14L29.8,30.9z M38.6,20c3.1,0,5.5,2.5,5.5,5.5c0,3.1-2.5,5.5-5.5,5.5c-3.1,0-5.5-2.5-5.5-5.5
	C33,22.5,35.5,20,38.6,20z M21.6,28.8c1.8,0,3.2-1.4,3.2-3.2c0-1.8-1.4-3.2-3.2-3.2c-1.8,0-3.2,1.4-3.2,3.2
	C18.3,27.3,19.8,28.8,21.6,28.8z M38.6,28.8c1.8,0,3.3-1.5,3.3-3.3c0-1.8-1.5-3.3-3.3-3.3c-1.8,0-3.3,1.5-3.3,3.3
	C35.3,27.3,36.8,28.8,38.6,28.8z"/>
</svg>